<mxfile host="app.diagrams.net" modified="2023-04-06T22:07:04.640Z" agent="Mozilla/5.0 (Macintosh; Intel Mac OS X 10_15_7) AppleWebKit/537.36 (KHTML, like Gecko) Chrome/107.0.0.0 Safari/537.36" etag="acfQE0BSB6VpTm4AA56m" version="21.1.5" type="device">
  <diagram name="PÃ¡gina-1" id="9Qk8Z7l4-ImLnBC6cc3P">
    <mxGraphModel dx="954" dy="548" grid="1" gridSize="10" guides="1" tooltips="1" connect="1" arrows="1" fold="1" page="1" pageScale="1" pageWidth="827" pageHeight="1169" math="0" shadow="0">
      <root>
        <mxCell id="0" />
        <mxCell id="1" parent="0" />
        <mxCell id="-KUKOuvF9VS7pHhok8uf-1" value="ETL" style="whiteSpace=wrap;html=1;aspect=fixed;" vertex="1" parent="1">
          <mxGeometry x="170" y="200" width="80" height="80" as="geometry" />
        </mxCell>
        <mxCell id="-KUKOuvF9VS7pHhok8uf-7" value="" style="edgeStyle=orthogonalEdgeStyle;rounded=0;orthogonalLoop=1;jettySize=auto;html=1;" edge="1" parent="1" source="-KUKOuvF9VS7pHhok8uf-2" target="-KUKOuvF9VS7pHhok8uf-6">
          <mxGeometry relative="1" as="geometry" />
        </mxCell>
        <mxCell id="-KUKOuvF9VS7pHhok8uf-2" value="Data Warehouse" style="whiteSpace=wrap;html=1;aspect=fixed;" vertex="1" parent="1">
          <mxGeometry x="414" y="200" width="80" height="80" as="geometry" />
        </mxCell>
        <mxCell id="-KUKOuvF9VS7pHhok8uf-5" value="" style="edgeStyle=orthogonalEdgeStyle;rounded=0;orthogonalLoop=1;jettySize=auto;html=1;" edge="1" parent="1" source="-KUKOuvF9VS7pHhok8uf-3" target="-KUKOuvF9VS7pHhok8uf-4">
          <mxGeometry relative="1" as="geometry" />
        </mxCell>
        <mxCell id="-KUKOuvF9VS7pHhok8uf-3" value="API" style="whiteSpace=wrap;html=1;aspect=fixed;" vertex="1" parent="1">
          <mxGeometry x="690" y="200" width="80" height="80" as="geometry" />
        </mxCell>
        <mxCell id="-KUKOuvF9VS7pHhok8uf-4" value="" style="shape=singleArrow;whiteSpace=wrap;html=1;arrowWidth=0.4;arrowSize=0.4;direction=west;" vertex="1" parent="1">
          <mxGeometry x="498" y="210" width="80" height="60" as="geometry" />
        </mxCell>
        <mxCell id="-KUKOuvF9VS7pHhok8uf-6" value="" style="shape=singleArrow;whiteSpace=wrap;html=1;arrowWidth=0.4;arrowSize=0.4;direction=west;" vertex="1" parent="1">
          <mxGeometry x="254" y="210" width="80" height="60" as="geometry" />
        </mxCell>
      </root>
    </mxGraphModel>
  </diagram>
</mxfile>
